<?xml version="1.0" encoding="utf-8"?>
<!-- Generator: Adobe Illustrator 21.1.0, SVG Export Plug-In . SVG Version: 6.00 Build 0)  -->
<svg version="1.1" id="レイヤー_1" xmlns="http://www.w3.org/2000/svg" xmlns:xlink="http://www.w3.org/1999/xlink" x="0px"
	 y="0px" viewBox="0 0 569.4 209.3" style="enable-background:new 0 0 569.4 209.3;" xml:space="preserve">
<style type="text/css">
	.st0{fill:url(#SVGID_1_);}
	.st1{fill:url(#SVGID_2_);}
	.st2{fill:url(#SVGID_3_);}
	.st3{fill:#E95B9B;}
	.st4{fill:#FBD2A1;}
</style>
<g>
	<g>
		<g>
			<g>
				<g>
					<g>
						<linearGradient id="SVGID_1_" gradientUnits="userSpaceOnUse" x1="679.307" y1="70.512" x2="90.7442" y2="70.512">
							<stop  offset="0.3535" style="stop-color:#FBD2A1"/>
							<stop  offset="1" style="stop-color:#E95B9B"/>
						</linearGradient>
						<polygon class="st0" points="262,0 262,78.7 209.9,0 178.2,0 178.2,141 211.6,141 211.6,62.3 263.8,141 295.5,141 295.5,0 
													"/>
					</g>
					<g>
						<g>
							<linearGradient id="SVGID_2_" gradientUnits="userSpaceOnUse" x1="679.3178" y1="70.5052" x2="90.7382" y2="70.5052">
								<stop  offset="0.3535" style="stop-color:#FBD2A1"/>
								<stop  offset="1" style="stop-color:#E95B9B"/>
							</linearGradient>
							<path class="st1" d="M424.5,83.8c-4.3,9.9-12.8,21.7-28.8,21.7c-19,0-32.3-14.5-32.3-35.4c0-16.7,10.1-34.6,32.1-34.6
								c15.4,0,25.1,11.5,29,22.2l0.6,1.5h38.6l-0.4-2.7c-3.7-23.4-27.2-56.3-67.5-56.3c-45.3,0-69.7,36.1-69.7,70
								c0,40.1,30.1,70.4,70.1,70.4c32.5,0,59.5-22.3,67.2-55.4l0.6-2.9h-38.7L424.5,83.8z"/>
						</g>
					</g>
					<g>
						<g>
							<linearGradient id="SVGID_3_" gradientUnits="userSpaceOnUse" x1="679.3259" y1="70.512" x2="90.7184" y2="70.512">
								<stop  offset="0.3535" style="stop-color:#FBD2A1"/>
								<stop  offset="1" style="stop-color:#E95B9B"/>
							</linearGradient>
							<polygon class="st2" points="569.4,35.2 569.4,0 492,0 492,141 569.4,141 569.4,105.8 529.4,105.8 529.4,87 569.4,87 
								569.4,51.8 529.4,51.8 529.4,35.2 							"/>
						</g>
					</g>
				</g>
			</g>
		</g>
	</g>
	<g>
		<path class="st3" d="M29.8,55c0,28.7,21,53.3,48.3,53.3c18.3,0,36.9-11.3,36.9-33c0-17.1-12.3-31.1-27.4-31.1
			c-8.4,0-17.3,4.7-21.3,11.1c-4,6.5-4.5,13.4-1.2,19.3c2.5,4.6,8,7.5,14.2,7.5c2.4,0,4.7-0.5,6.6-1.4c3.9-1.8,7-4.6,6.3-9.5
			c-0.4-2.7-1.3-4.5-3.4-5.9c-1.7-1.2-3.9-1.6-5.9-1.2c-2.3,0.5-4.7-1-5.2-3.3c-0.3-1.1,0-2.3,0.6-3.3c0.6-1,1.6-1.7,2.8-1.9
			c4.4-1,9-0.1,12.8,2.5c4.1,2.8,6.3,6.7,7.1,11.8c1.2,8.1-3.2,15-11.3,18.7c-3.2,1.5-6.6,2.2-10.3,2.2c-9.3,0-17.9-4.8-21.9-12.2
			c-4.7-8.8-4.2-18.7,1.5-28c5.6-9,17.4-15.3,28.8-15.3c20,0,36.2,17.9,36.2,39.8c0,24.2-19.2,41.7-45.7,41.7
			c-32.1,0-58.3-27.3-58.3-60.8c0-6.4,0.9-12.6,2.6-18.3c-5.5,9.6-8.6,20.8-8.6,32.6c0,36.7,29.8,66.5,66.5,66.5
			c36.6,0,66.5-29.8,66.5-66.5c0-36.6-27.6-65.8-64.2-65.8c-20,0-41.4,13.9-49.1,32.3C31.1,42.5,29.8,49.1,29.8,55z"/>
	</g>
	<g>
		<path class="st4" d="M1.3,192.2c-2.9,5.8-0.6,12.9,5.2,15.8c1.7,0.8,3.5,1.3,5.3,1.3c4.3,0,8.4-2.4,10.5-6.5l32.2-63.9
			c-7.5-2.8-14.4-6.8-20.4-11.7L1.3,192.2z"/>
	</g>
</g>
</svg>
